<svg width="408" height="397" viewBox="0 0 408 397" fill="none" xmlns="http://www.w3.org/2000/svg">
<g filter="url(#filter0_d_86_62)">
<g clip-path="url(#clip0_86_62)">
<rect x="11" width="386" height="374" rx="20" fill="white"/>
<rect x="11" width="386" height="374" fill="url(#paint0_linear_86_62)"/>
<path d="M121.662 175.435H118.474C118.384 174.912 118.216 174.449 117.972 174.045C117.727 173.636 117.423 173.29 117.06 173.006C116.696 172.722 116.281 172.509 115.815 172.366C115.355 172.219 114.858 172.145 114.324 172.145C113.375 172.145 112.534 172.384 111.801 172.861C111.068 173.332 110.494 174.026 110.08 174.94C109.665 175.849 109.457 176.96 109.457 178.273C109.457 179.608 109.665 180.733 110.08 181.648C110.5 182.557 111.074 183.244 111.801 183.71C112.534 184.17 113.372 184.401 114.315 184.401C114.838 184.401 115.327 184.332 115.781 184.196C116.241 184.054 116.653 183.847 117.017 183.574C117.386 183.301 117.696 182.966 117.946 182.568C118.202 182.17 118.378 181.716 118.474 181.205L121.662 181.222C121.543 182.051 121.284 182.83 120.886 183.557C120.494 184.284 119.98 184.926 119.344 185.483C118.707 186.034 117.963 186.466 117.111 186.778C116.259 187.085 115.313 187.239 114.273 187.239C112.739 187.239 111.369 186.884 110.165 186.173C108.96 185.463 108.011 184.438 107.318 183.097C106.625 181.756 106.278 180.148 106.278 178.273C106.278 176.392 106.628 174.784 107.327 173.449C108.026 172.108 108.977 171.082 110.182 170.372C111.386 169.662 112.75 169.307 114.273 169.307C115.244 169.307 116.148 169.443 116.983 169.716C117.818 169.989 118.563 170.389 119.216 170.918C119.869 171.44 120.406 172.082 120.827 172.844C121.253 173.599 121.531 174.463 121.662 175.435ZM127.506 179.33V187H124.421V169.545H127.438V176.134H127.592C127.898 175.395 128.373 174.812 129.015 174.386C129.663 173.955 130.487 173.739 131.487 173.739C132.396 173.739 133.188 173.929 133.864 174.31C134.54 174.69 135.063 175.247 135.433 175.98C135.808 176.713 135.995 177.608 135.995 178.665V187H132.91V179.142C132.91 178.261 132.683 177.577 132.228 177.088C131.779 176.594 131.148 176.347 130.336 176.347C129.79 176.347 129.302 176.466 128.87 176.705C128.444 176.937 128.109 177.276 127.864 177.719C127.626 178.162 127.506 178.699 127.506 179.33ZM144.85 187.256C143.572 187.256 142.464 186.974 141.526 186.412C140.589 185.849 139.862 185.062 139.344 184.051C138.833 183.04 138.577 181.858 138.577 180.506C138.577 179.153 138.833 177.969 139.344 176.952C139.862 175.935 140.589 175.145 141.526 174.582C142.464 174.02 143.572 173.739 144.85 173.739C146.129 173.739 147.237 174.02 148.174 174.582C149.112 175.145 149.836 175.935 150.347 176.952C150.864 177.969 151.123 179.153 151.123 180.506C151.123 181.858 150.864 183.04 150.347 184.051C149.836 185.062 149.112 185.849 148.174 186.412C147.237 186.974 146.129 187.256 144.85 187.256ZM144.867 184.784C145.56 184.784 146.14 184.594 146.606 184.213C147.072 183.827 147.418 183.31 147.646 182.662C147.879 182.014 147.995 181.293 147.995 180.497C147.995 179.696 147.879 178.972 147.646 178.324C147.418 177.67 147.072 177.151 146.606 176.764C146.14 176.378 145.56 176.185 144.867 176.185C144.157 176.185 143.566 176.378 143.094 176.764C142.629 177.151 142.279 177.67 142.046 178.324C141.819 178.972 141.705 179.696 141.705 180.497C141.705 181.293 141.819 182.014 142.046 182.662C142.279 183.31 142.629 183.827 143.094 184.213C143.566 184.594 144.157 184.784 144.867 184.784ZM159.452 187.256C158.173 187.256 157.065 186.974 156.128 186.412C155.19 185.849 154.463 185.062 153.946 184.051C153.435 183.04 153.179 181.858 153.179 180.506C153.179 179.153 153.435 177.969 153.946 176.952C154.463 175.935 155.19 175.145 156.128 174.582C157.065 174.02 158.173 173.739 159.452 173.739C160.73 173.739 161.838 174.02 162.776 174.582C163.713 175.145 164.438 175.935 164.949 176.952C165.466 177.969 165.724 179.153 165.724 180.506C165.724 181.858 165.466 183.04 164.949 184.051C164.438 185.062 163.713 185.849 162.776 186.412C161.838 186.974 160.73 187.256 159.452 187.256ZM159.469 184.784C160.162 184.784 160.741 184.594 161.207 184.213C161.673 183.827 162.02 183.31 162.247 182.662C162.48 182.014 162.597 181.293 162.597 180.497C162.597 179.696 162.48 178.972 162.247 178.324C162.02 177.67 161.673 177.151 161.207 176.764C160.741 176.378 160.162 176.185 159.469 176.185C158.759 176.185 158.168 176.378 157.696 176.764C157.23 177.151 156.881 177.67 156.648 178.324C156.42 178.972 156.307 179.696 156.307 180.497C156.307 181.293 156.42 182.014 156.648 182.662C156.881 183.31 157.23 183.827 157.696 184.213C158.168 184.594 158.759 184.784 159.469 184.784ZM178.69 177.369L175.877 177.676C175.798 177.392 175.658 177.125 175.46 176.875C175.266 176.625 175.005 176.423 174.675 176.27C174.346 176.116 173.942 176.04 173.465 176.04C172.823 176.04 172.283 176.179 171.846 176.457C171.414 176.736 171.201 177.097 171.207 177.54C171.201 177.92 171.34 178.23 171.624 178.469C171.914 178.707 172.391 178.903 173.056 179.057L175.289 179.534C176.528 179.801 177.448 180.224 178.05 180.804C178.658 181.384 178.965 182.142 178.971 183.08C178.965 183.903 178.724 184.631 178.246 185.261C177.775 185.886 177.119 186.375 176.278 186.727C175.437 187.08 174.471 187.256 173.38 187.256C171.778 187.256 170.488 186.92 169.511 186.25C168.533 185.574 167.951 184.634 167.763 183.429L170.772 183.139C170.908 183.73 171.198 184.176 171.641 184.477C172.085 184.778 172.661 184.929 173.371 184.929C174.104 184.929 174.692 184.778 175.136 184.477C175.585 184.176 175.809 183.804 175.809 183.361C175.809 182.986 175.664 182.676 175.374 182.432C175.09 182.187 174.647 182 174.045 181.869L171.812 181.401C170.556 181.139 169.627 180.699 169.025 180.08C168.423 179.455 168.124 178.665 168.13 177.71C168.124 176.903 168.343 176.205 168.786 175.614C169.235 175.017 169.857 174.557 170.653 174.233C171.454 173.903 172.377 173.739 173.423 173.739C174.957 173.739 176.164 174.065 177.045 174.719C177.931 175.372 178.479 176.256 178.69 177.369ZM187.31 187.256C185.998 187.256 184.864 186.983 183.91 186.438C182.961 185.886 182.231 185.108 181.719 184.102C181.208 183.091 180.952 181.901 180.952 180.531C180.952 179.185 181.208 178.003 181.719 176.986C182.237 175.963 182.958 175.168 183.884 174.599C184.81 174.026 185.898 173.739 187.148 173.739C187.955 173.739 188.717 173.869 189.433 174.131C190.154 174.386 190.79 174.784 191.342 175.324C191.898 175.864 192.336 176.551 192.654 177.386C192.972 178.216 193.131 179.205 193.131 180.352V181.298H182.401V179.219H190.174C190.168 178.628 190.04 178.102 189.79 177.642C189.54 177.176 189.191 176.81 188.742 176.543C188.299 176.276 187.782 176.142 187.191 176.142C186.56 176.142 186.006 176.295 185.529 176.602C185.052 176.903 184.68 177.301 184.413 177.795C184.151 178.284 184.018 178.821 184.012 179.406V181.222C184.012 181.983 184.151 182.636 184.43 183.182C184.708 183.722 185.097 184.136 185.597 184.426C186.097 184.71 186.683 184.852 187.353 184.852C187.802 184.852 188.208 184.79 188.572 184.665C188.935 184.534 189.251 184.344 189.518 184.094C189.785 183.844 189.987 183.534 190.123 183.165L193.004 183.489C192.822 184.25 192.475 184.915 191.964 185.483C191.458 186.045 190.81 186.483 190.021 186.795C189.231 187.102 188.327 187.256 187.31 187.256ZM205.462 187.264C204.632 187.264 203.885 187.116 203.22 186.821C202.561 186.52 202.038 186.077 201.652 185.491C201.271 184.906 201.081 184.185 201.081 183.327C201.081 182.588 201.217 181.977 201.49 181.494C201.763 181.011 202.135 180.625 202.607 180.335C203.078 180.045 203.609 179.827 204.2 179.679C204.797 179.526 205.413 179.415 206.05 179.347C206.817 179.267 207.439 179.196 207.916 179.134C208.393 179.065 208.74 178.963 208.956 178.827C209.178 178.685 209.288 178.466 209.288 178.17V178.119C209.288 177.477 209.098 176.98 208.717 176.628C208.337 176.276 207.788 176.099 207.072 176.099C206.317 176.099 205.717 176.264 205.274 176.594C204.837 176.923 204.541 177.312 204.388 177.761L201.507 177.352C201.734 176.557 202.109 175.892 202.632 175.358C203.155 174.818 203.794 174.415 204.55 174.148C205.305 173.875 206.141 173.739 207.055 173.739C207.686 173.739 208.314 173.812 208.939 173.96C209.564 174.108 210.135 174.352 210.652 174.693C211.169 175.028 211.584 175.486 211.896 176.065C212.214 176.645 212.374 177.369 212.374 178.239V187H209.408V185.202H209.305C209.118 185.565 208.854 185.906 208.513 186.224C208.178 186.537 207.754 186.79 207.243 186.983C206.737 187.17 206.143 187.264 205.462 187.264ZM206.263 184.997C206.882 184.997 207.419 184.875 207.874 184.631C208.328 184.381 208.678 184.051 208.922 183.642C209.172 183.233 209.297 182.787 209.297 182.304V180.761C209.2 180.841 209.036 180.915 208.803 180.983C208.575 181.051 208.32 181.111 208.036 181.162C207.751 181.213 207.47 181.259 207.192 181.298C206.913 181.338 206.672 181.372 206.467 181.401C206.007 181.463 205.595 181.565 205.232 181.707C204.868 181.849 204.581 182.048 204.371 182.304C204.161 182.554 204.055 182.878 204.055 183.276C204.055 183.844 204.263 184.273 204.678 184.562C205.092 184.852 205.621 184.997 206.263 184.997ZM221.429 191.909V173.909H224.463V176.074H224.642C224.801 175.756 225.026 175.418 225.315 175.06C225.605 174.696 225.997 174.386 226.491 174.131C226.986 173.869 227.616 173.739 228.384 173.739C229.395 173.739 230.307 173.997 231.119 174.514C231.938 175.026 232.585 175.784 233.062 176.79C233.545 177.79 233.787 179.017 233.787 180.472C233.787 181.909 233.551 183.131 233.08 184.136C232.608 185.142 231.966 185.909 231.153 186.438C230.341 186.966 229.42 187.23 228.392 187.23C227.642 187.23 227.02 187.105 226.526 186.855C226.031 186.605 225.634 186.304 225.332 185.952C225.037 185.594 224.807 185.256 224.642 184.938H224.514V191.909H221.429ZM224.455 180.455C224.455 181.301 224.574 182.043 224.812 182.679C225.057 183.315 225.406 183.812 225.861 184.17C226.321 184.523 226.878 184.699 227.531 184.699C228.213 184.699 228.784 184.517 229.244 184.153C229.705 183.784 230.051 183.281 230.284 182.645C230.523 182.003 230.642 181.273 230.642 180.455C230.642 179.642 230.526 178.92 230.293 178.29C230.06 177.659 229.713 177.165 229.253 176.807C228.793 176.449 228.219 176.27 227.531 176.27C226.872 176.27 226.312 176.443 225.852 176.79C225.392 177.136 225.043 177.622 224.804 178.247C224.571 178.872 224.455 179.608 224.455 180.455ZM236.429 187V173.909H239.514V187H236.429ZM237.98 172.051C237.491 172.051 237.071 171.889 236.719 171.565C236.366 171.236 236.19 170.841 236.19 170.381C236.19 169.915 236.366 169.52 236.719 169.196C237.071 168.866 237.491 168.702 237.98 168.702C238.474 168.702 238.895 168.866 239.241 169.196C239.594 169.52 239.77 169.915 239.77 170.381C239.77 170.841 239.594 171.236 239.241 171.565C238.895 171.889 238.474 172.051 237.98 172.051ZM248.397 187.256C247.09 187.256 245.968 186.969 245.031 186.395C244.099 185.821 243.38 185.028 242.874 184.017C242.374 183 242.124 181.83 242.124 180.506C242.124 179.176 242.38 178.003 242.891 176.986C243.403 175.963 244.124 175.168 245.056 174.599C245.994 174.026 247.102 173.739 248.38 173.739C249.442 173.739 250.383 173.935 251.201 174.327C252.025 174.713 252.681 175.261 253.17 175.972C253.658 176.676 253.937 177.5 254.005 178.443H251.056C250.937 177.812 250.653 177.287 250.204 176.866C249.761 176.44 249.167 176.227 248.423 176.227C247.792 176.227 247.238 176.398 246.761 176.739C246.283 177.074 245.911 177.557 245.644 178.188C245.383 178.818 245.252 179.574 245.252 180.455C245.252 181.347 245.383 182.114 245.644 182.756C245.906 183.392 246.272 183.884 246.744 184.23C247.221 184.571 247.781 184.741 248.423 184.741C248.877 184.741 249.283 184.656 249.641 184.486C250.005 184.31 250.309 184.057 250.553 183.727C250.798 183.398 250.965 182.997 251.056 182.526H254.005C253.931 183.452 253.658 184.273 253.187 184.989C252.715 185.699 252.073 186.256 251.261 186.659C250.448 187.057 249.494 187.256 248.397 187.256ZM263.075 173.909V176.295H255.55V173.909H263.075ZM257.408 170.773H260.493V183.062C260.493 183.477 260.555 183.795 260.68 184.017C260.811 184.233 260.982 184.381 261.192 184.46C261.402 184.54 261.635 184.58 261.891 184.58C262.084 184.58 262.26 184.565 262.419 184.537C262.584 184.509 262.709 184.483 262.794 184.46L263.314 186.872C263.149 186.929 262.913 186.991 262.607 187.06C262.305 187.128 261.936 187.168 261.499 187.179C260.726 187.202 260.03 187.085 259.411 186.83C258.791 186.568 258.3 186.165 257.936 185.619C257.578 185.074 257.402 184.392 257.408 183.574V170.773ZM273.999 181.494V173.909H277.085V187H274.093V184.673H273.957C273.661 185.406 273.175 186.006 272.499 186.472C271.829 186.937 271.002 187.17 270.019 187.17C269.161 187.17 268.403 186.98 267.744 186.599C267.09 186.213 266.579 185.653 266.21 184.92C265.84 184.182 265.656 183.29 265.656 182.244V173.909H268.741V181.767C268.741 182.597 268.968 183.256 269.423 183.744C269.877 184.233 270.474 184.477 271.212 184.477C271.667 184.477 272.107 184.366 272.533 184.145C272.96 183.923 273.309 183.594 273.582 183.156C273.86 182.713 273.999 182.159 273.999 181.494ZM280.257 187V173.909H283.249V176.091H283.385C283.624 175.335 284.033 174.753 284.612 174.344C285.197 173.929 285.865 173.722 286.615 173.722C286.786 173.722 286.976 173.73 287.186 173.747C287.402 173.759 287.581 173.778 287.723 173.807V176.645C287.592 176.599 287.385 176.56 287.101 176.526C286.822 176.486 286.553 176.466 286.291 176.466C285.729 176.466 285.223 176.588 284.774 176.832C284.331 177.071 283.982 177.403 283.726 177.83C283.47 178.256 283.342 178.747 283.342 179.304V187H280.257ZM295.029 187.256C293.717 187.256 292.583 186.983 291.629 186.438C290.68 185.886 289.95 185.108 289.438 184.102C288.927 183.091 288.671 181.901 288.671 180.531C288.671 179.185 288.927 178.003 289.438 176.986C289.955 175.963 290.677 175.168 291.603 174.599C292.529 174.026 293.617 173.739 294.867 173.739C295.674 173.739 296.435 173.869 297.151 174.131C297.873 174.386 298.509 174.784 299.06 175.324C299.617 175.864 300.055 176.551 300.373 177.386C300.691 178.216 300.85 179.205 300.85 180.352V181.298H290.12V179.219H297.893C297.887 178.628 297.759 178.102 297.509 177.642C297.259 177.176 296.91 176.81 296.461 176.543C296.018 176.276 295.501 176.142 294.91 176.142C294.279 176.142 293.725 176.295 293.248 176.602C292.771 176.903 292.398 177.301 292.131 177.795C291.87 178.284 291.737 178.821 291.731 179.406V181.222C291.731 181.983 291.87 182.636 292.148 183.182C292.427 183.722 292.816 184.136 293.316 184.426C293.816 184.71 294.401 184.852 295.072 184.852C295.521 184.852 295.927 184.79 296.29 184.665C296.654 184.534 296.969 184.344 297.237 184.094C297.504 183.844 297.705 183.534 297.842 183.165L300.722 183.489C300.54 184.25 300.194 184.915 299.683 185.483C299.177 186.045 298.529 186.483 297.739 186.795C296.95 187.102 296.046 187.256 295.029 187.256Z" fill="#1F1F1F"/>
</g>
</g>
<defs>
<filter id="filter0_d_86_62" x="0.982759" y="0" width="406.034" height="396.539" filterUnits="userSpaceOnUse" color-interpolation-filters="sRGB">
<feFlood flood-opacity="0" result="BackgroundImageFix"/>
<feColorMatrix in="SourceAlpha" type="matrix" values="0 0 0 0 0 0 0 0 0 0 0 0 0 0 0 0 0 0 127 0" result="hardAlpha"/>
<feOffset dy="12.5216"/>
<feGaussianBlur stdDeviation="5.00862"/>
<feColorMatrix type="matrix" values="0 0 0 0 0.380392 0 0 0 0 0.329412 0 0 0 0 0.666667 0 0 0 0.065 0"/>
<feBlend mode="normal" in2="BackgroundImageFix" result="effect1_dropShadow_86_62"/>
<feBlend mode="normal" in="SourceGraphic" in2="effect1_dropShadow_86_62" result="shape"/>
</filter>
<linearGradient id="paint0_linear_86_62" x1="383.5" y1="2.30374e-06" x2="11" y2="395" gradientUnits="userSpaceOnUse">
<stop stop-opacity="0.5"/>
<stop offset="1" stop-opacity="0"/>
</linearGradient>
<clipPath id="clip0_86_62">
<rect x="11" width="386" height="374" rx="20" fill="white"/>
</clipPath>
</defs>
</svg>
