<svg width="30" height="34" viewBox="0 0 30 34" fill="none" xmlns="http://www.w3.org/2000/svg">
<path d="M2.33321 20.1882C3.25647 20.1882 4.01354 20.8219 4.1428 21.6612C4.36574 23.0875 4.90934 24.4545 5.73834 25.6735C6.56734 26.8925 7.66324 27.9363 8.95501 28.7373C10.2468 29.5383 11.7056 30.0785 13.2369 30.323C14.7682 30.5675 16.3378 30.5108 17.8439 30.1566C21.9986 29.2316 25.0638 26.2685 25.9501 22.3976C26.3017 20.8954 26.2864 19.3392 25.9053 17.8432C25.5241 16.3472 24.7868 14.9492 23.7475 13.7519C22.7081 12.5546 21.393 11.5882 19.8986 10.9237C18.4041 10.2591 16.7683 9.91328 15.1111 9.91147V14.6901C15.1111 15.4609 14.114 15.8377 13.5415 15.2896L6.54326 8.79816C6.17396 8.45561 6.17396 7.92464 6.54326 7.58209L13.5415 1.09065C13.6717 0.972287 13.8367 0.892319 14.0158 0.860819C14.1949 0.829319 14.38 0.847697 14.5479 0.913637C14.7157 0.979576 14.8588 1.09013 14.959 1.23136C15.0592 1.37258 15.1121 1.53817 15.1111 1.70725V6.48591C24.2328 6.48591 31.4342 14.1592 29.5877 22.9286C28.4798 28.2554 24.2328 32.3489 18.5271 33.5307C9.60847 35.3805 1.63154 29.7626 0.486704 22.1065C0.320518 21.0959 1.22531 20.1882 2.33321 20.1882Z" fill="#0972BE"/>
<path fill-rule="evenodd" clip-rule="evenodd" d="M19.1216 17.5369C18.7892 17.417 18.4384 17.3656 18.0321 17.3656C17.6259 17.3656 17.2751 17.417 16.9427 17.5369C16.6103 17.6568 16.3333 17.8452 16.1117 18.1021C15.8901 18.359 15.687 18.6844 15.5762 19.0784C15.4654 19.4723 15.3916 19.9348 15.3916 20.4829V21.7503C15.3916 22.2984 15.4654 22.778 15.5947 23.1548C15.724 23.5316 15.9086 23.8742 16.1487 24.1311C16.3887 24.388 16.6657 24.5764 16.9981 24.6963C17.3305 24.8162 17.6813 24.8676 18.0875 24.8676C18.4938 24.8676 18.8446 24.8162 19.177 24.6963C19.5094 24.5764 19.7864 24.388 20.008 24.1311C20.2295 23.8742 20.4142 23.5487 20.5435 23.1548C20.6727 22.7609 20.7281 22.2984 20.7281 21.7503V20.4829C20.7281 19.9348 20.6543 19.4552 20.525 19.0784C20.3957 18.7016 20.2111 18.359 19.971 18.1021C19.731 17.8452 19.4355 17.6568 19.1216 17.5369ZM12.8064 24.7648V17.4512H12.6402L9.37183 18.5303V19.7121L11.2368 19.1811V24.7648H12.8064ZM19.1402 21.9388C19.1402 22.2642 19.1218 22.5382 19.0664 22.7609C19.011 22.9835 18.9556 23.172 18.8632 23.309C18.7709 23.446 18.6601 23.5488 18.5124 23.6001C18.3647 23.6515 18.217 23.6858 18.0508 23.6858C17.8846 23.6858 17.7184 23.6515 17.5891 23.6001C17.4599 23.5488 17.3306 23.446 17.2383 23.309C17.146 23.172 17.0721 22.9835 17.0167 22.7609C16.9613 22.5382 16.9428 22.2642 16.9428 21.9388V20.2774C16.9428 19.9519 16.9613 19.6779 17.0167 19.4552C17.0721 19.2326 17.1275 19.0613 17.2383 18.9243C17.3491 18.7872 17.4414 18.6845 17.5891 18.6331C17.7368 18.5817 17.8846 18.5474 18.0508 18.5474C18.217 18.5474 18.3831 18.5817 18.5124 18.6331C18.6417 18.6845 18.7709 18.7872 18.8632 18.9243C18.9556 19.0613 19.0294 19.2326 19.0848 19.4552C19.1402 19.6779 19.1587 19.9519 19.1587 20.2774V21.9388H19.1402Z" fill="#0972BE"/>
</svg>
