<svg width="30" height="33" viewBox="0 0 30 33" fill="none" xmlns="http://www.w3.org/2000/svg">
<path d="M28.0964 19.3191C27.1546 19.3191 26.3824 19.9521 26.2506 20.7903C26.0232 22.215 25.4687 23.5803 24.6231 24.7979C23.7775 26.0154 22.6597 27.058 21.3421 27.858C20.0245 28.658 18.5365 29.1976 16.9745 29.4418C15.4126 29.686 13.8116 29.6294 12.2753 29.2756C8.03754 28.3518 4.91099 25.3922 4.00693 21.526C3.64827 20.0255 3.66389 18.4712 4.05266 16.977C4.44142 15.4827 5.19346 14.0865 6.25364 12.8906C7.31382 11.6947 8.65525 10.7295 10.1796 10.0657C11.7039 9.40201 13.3724 9.05657 15.0628 9.05477V13.8277C15.0628 14.5975 16.0799 14.9739 16.6638 14.4264L23.8021 7.94279C24.1788 7.60065 24.1788 7.07032 23.8021 6.72818L16.6638 0.244527C16.531 0.126311 16.3627 0.0464382 16.18 0.0149759C15.9973 -0.0164863 15.8085 0.00186959 15.6373 0.0677301C15.4661 0.133591 15.3202 0.244008 15.2179 0.385068C15.1157 0.526127 15.0617 0.691515 15.0628 0.860388V5.63332C5.75855 5.63332 -1.58694 13.2974 0.296516 22.0563C1.42659 27.3766 5.75855 31.4653 11.5784 32.6457C20.6755 34.4933 28.8121 28.8821 29.9798 21.2351C30.1494 20.2258 29.2265 19.3191 28.0964 19.3191ZM12.991 24.4513V17.1465H12.8215L9.4878 18.2243V19.4047L11.3901 18.8743V24.4513H12.991ZM19.4325 17.232C19.0934 17.1123 18.7356 17.061 18.3212 17.061C17.9069 17.061 17.549 17.1123 17.21 17.232C16.871 17.3518 16.5884 17.54 16.3624 17.7966C16.1364 18.0532 15.9292 18.3782 15.8162 18.7717C15.7032 19.1652 15.6279 19.6271 15.6279 20.1745V21.4404C15.6279 21.9879 15.7032 22.4669 15.8351 22.8432C15.9669 23.2196 16.1552 23.5617 16.4001 23.8183C16.6449 24.0749 16.9275 24.2631 17.2665 24.3829C17.6055 24.5026 17.9634 24.5539 18.3777 24.5539C18.7921 24.5539 19.1499 24.5026 19.489 24.3829C19.828 24.2631 20.1105 24.0749 20.3365 23.8183C20.5625 23.5617 20.7509 23.2367 20.8827 22.8432C21.0146 22.4498 21.0711 21.9879 21.0711 21.4404V20.1745C21.0711 19.6271 20.9957 19.1481 20.8639 18.7717C20.7321 18.3953 20.5437 18.0532 20.2989 17.7966C20.054 17.54 19.7527 17.3518 19.4325 17.232ZM19.4513 21.6286C19.4513 21.9536 19.4325 22.2274 19.376 22.4498C19.3195 22.6721 19.263 22.8603 19.1688 22.9972C19.0746 23.134 18.9616 23.2367 18.8109 23.288C18.6602 23.3393 18.5096 23.3735 18.3401 23.3735C18.1705 23.3735 18.001 23.3393 17.8692 23.288C17.7374 23.2367 17.6055 23.134 17.5113 22.9972C17.4172 22.8603 17.3418 22.6721 17.2853 22.4498C17.2288 22.2274 17.21 21.9536 17.21 21.6286V19.9692C17.21 19.6442 17.2288 19.3704 17.2853 19.1481C17.3418 18.9257 17.3983 18.7546 17.5113 18.6177C17.6243 18.4809 17.7185 18.3782 17.8692 18.3269C18.0199 18.2756 18.1705 18.2414 18.3401 18.2414C18.5096 18.2414 18.6791 18.2756 18.8109 18.3269C18.9428 18.3782 19.0746 18.4809 19.1688 18.6177C19.263 18.7546 19.3383 18.9257 19.3948 19.1481C19.4513 19.3704 19.4701 19.6442 19.4701 19.9692V21.6286H19.4513Z" fill="#0972BE"/>
</svg>
